<svg xmlns="http://www.w3.org/2000/svg" version="1.1" xmlns:xlink="http://www.w3.org/1999/xlink" xmlns:svgjs="http://svgjs.com/svgjs" width="512" height="512" x="0" y="0" viewBox="0 0 512 512" style="enable-background:new 0 0 512 512;" xml:space="preserve" class=""><g><path xmlns="http://www.w3.org/2000/svg" d="m256 0c-141.158 0-256 114.842-256 256s114.839 256 256 256 256-114.841 256-256-114.84-256-256-256zm-49.921 114.329a8.325 8.325 0 0 1 8.32-8.324h83.2a8.341 8.341 0 0 1 8.322 8.334v20.577h-99.842zm136.8 279.759a12.745 12.745 0 0 1 -12.812 11.912h-149.1a12.873 12.873 0 0 1 -12.807-11.963l-12.753-186.637h201.081l-13.614 186.688zm33.141-203.588h-240.04v-19.339a19.357 19.357 0 0 1 19.339-19.341l201.359-.006a19.365 19.365 0 0 1 19.338 19.348v19.336zm-158.67 171.008v-118.508a8.449 8.449 0 0 1 16.9.006v118.502a8.451 8.451 0 1 1 -16.9 0zm60.292 0v-118.508a8.451 8.451 0 0 1 16.9.006v118.507a8.452 8.452 0 1 1 -16.9 0z" fill="#ff0000" fill-rule="evenodd" data-original="#fc0005" class=""></path></g></svg>